<svg height="256" viewBox="0 0 406.39999 67.733336" width="1536" xmlns="http://www.w3.org/2000/svg"><path d="m0 0h196.35013v67.733337h-196.35013z" fill="#fff"/><g transform="matrix(.29910162 -.51805925 .51805925 .29910162 -20.257579 46.846766)"><path d="m14.160156 48.654297-5.9746091 5.976562 5.9746091 5.978516h37.972656v20.494141c-.000007 13.663143 12.063193 22.843754 24.765626 22.843754 12.168729 0 24.658202-9.821236 24.658202-23.484379v-31.808594h-57.361328l-1.703124 2.949219-1.703126-2.949219h-1.925781l-2.867187 4.964844-2.867188-4.964844h-3.291015l-1.011719 1.753906-1.011719-1.753906h-2.392578l-.927734 1.605469-.927735-1.605469h-2.279297l-2.392578 4.144531-2.392578-4.144531zm48.541016 11.955078h28.287109v19.107422c-.000011 6.404598-5.657105 12.060547-14.089843 12.060547-8.112477-.000038-14.197274-4.695084-14.197266-11.419922z" fill="#c0c0c0"/><path d="m14.160156 48.654297-1.060547 1.060547h4.013672l-.611328-1.060547zm7.126953 0-.611328 1.060547h3.503907l-.613282-1.060547zm4.134766 0-.613281 1.060547h3.617187l-.611328-1.060547zm4.416016 0-.611329 1.060547h4.515626l-.613282-1.060547zm9.02539 0-.613281 1.060547h3.152344l-.613282-1.060547zm5.332031 0-.613281 1.060547h8.539063v.943359h-9.083985l-.544921.945313-.544922-.945313h-4.242188l-.861328 1.492188h15.277344v2h-43.4550784l-.4804687.480468 5.9746091 5.978516h37.972656v20.494141c-.000007 13.663143 12.063191 22.843754 24.765626 22.843754 12.168729 0 24.658202-9.821236 24.658202-23.484379v-31.808594zm-32.037109 2.003906-1.492187 1.492188h7.853515l-.861328-1.492188zm7.972656 0-.861328 1.492188h15.878907l-.861329-1.492188zm42.570313 9.951172h28.287109v19.107422c-.000011 6.404598-5.657105 12.060547-14.089843 12.060547-8.112479-.000038-14.197274-4.695084-14.197266-11.419922z" fill="#404040"/></g><text font-family="Raleway" font-size="27.361206" letter-spacing="0" stroke-width=".320639" word-spacing="0" x="71.110428" y="46.887157"><tspan font-family="Raleway" font-size="27.361206" stroke-width=".320639" x="71.110428" y="46.887157">Portunus</tspan></text></svg>